<mxfile host="app.diagrams.net" agent="Mozilla/5.0 (Windows NT 10.0; Win64; x64) AppleWebKit/537.36 (KHTML, like Gecko) Chrome/131.0.0.0 Safari/537.36" version="26.0.6">
  <diagram name="DiagramaConceitual" id="YH8StJNRZbOd-iaAXFci">
    <mxGraphModel dx="2261" dy="1907" grid="1" gridSize="10" guides="1" tooltips="1" connect="1" arrows="1" fold="1" page="1" pageScale="1" pageWidth="827" pageHeight="1169" math="0" shadow="0">
      <root>
        <mxCell id="0" />
        <mxCell id="1" parent="0" />
        <mxCell id="WhsTPG60wOjjwXIWc06s-1" value="Diagrama Conceitual" style="rounded=0;whiteSpace=wrap;html=1;fontSize=50;" vertex="1" parent="1">
          <mxGeometry x="-110" y="-110" width="560" height="70" as="geometry" />
        </mxCell>
        <mxCell id="WhsTPG60wOjjwXIWc06s-2" value="Sistema de Consultas Veterinarias" style="rounded=0;whiteSpace=wrap;html=1;fontSize=25;" vertex="1" parent="1">
          <mxGeometry x="-110" y="-40" width="560" height="40" as="geometry" />
        </mxCell>
        <mxCell id="WhsTPG60wOjjwXIWc06s-8" style="edgeStyle=orthogonalEdgeStyle;rounded=0;orthogonalLoop=1;jettySize=auto;html=1;exitX=1;exitY=0.5;exitDx=0;exitDy=0;entryX=0;entryY=0.5;entryDx=0;entryDy=0;" edge="1" parent="1" source="WhsTPG60wOjjwXIWc06s-11" target="WhsTPG60wOjjwXIWc06s-5">
          <mxGeometry relative="1" as="geometry" />
        </mxCell>
        <mxCell id="WhsTPG60wOjjwXIWc06s-3" value="Proprietários" style="rounded=0;whiteSpace=wrap;html=1;" vertex="1" parent="1">
          <mxGeometry x="-330" y="230" width="120" height="60" as="geometry" />
        </mxCell>
        <mxCell id="WhsTPG60wOjjwXIWc06s-9" style="edgeStyle=orthogonalEdgeStyle;rounded=0;orthogonalLoop=1;jettySize=auto;html=1;exitX=1;exitY=0.5;exitDx=0;exitDy=0;entryX=0;entryY=0.5;entryDx=0;entryDy=0;" edge="1" parent="1" source="WhsTPG60wOjjwXIWc06s-13" target="WhsTPG60wOjjwXIWc06s-6">
          <mxGeometry relative="1" as="geometry" />
        </mxCell>
        <mxCell id="WhsTPG60wOjjwXIWc06s-5" value="Animais" style="rounded=0;whiteSpace=wrap;html=1;" vertex="1" parent="1">
          <mxGeometry x="-50" y="230" width="120" height="60" as="geometry" />
        </mxCell>
        <mxCell id="WhsTPG60wOjjwXIWc06s-83" style="edgeStyle=orthogonalEdgeStyle;rounded=0;orthogonalLoop=1;jettySize=auto;html=1;exitX=0.5;exitY=1;exitDx=0;exitDy=0;entryX=0.5;entryY=0;entryDx=0;entryDy=0;" edge="1" parent="1" source="WhsTPG60wOjjwXIWc06s-6" target="WhsTPG60wOjjwXIWc06s-82">
          <mxGeometry relative="1" as="geometry" />
        </mxCell>
        <mxCell id="WhsTPG60wOjjwXIWc06s-92" style="edgeStyle=orthogonalEdgeStyle;rounded=0;orthogonalLoop=1;jettySize=auto;html=1;exitX=1;exitY=0.5;exitDx=0;exitDy=0;entryX=0;entryY=0.5;entryDx=0;entryDy=0;" edge="1" parent="1" source="WhsTPG60wOjjwXIWc06s-6" target="WhsTPG60wOjjwXIWc06s-53">
          <mxGeometry relative="1" as="geometry" />
        </mxCell>
        <mxCell id="WhsTPG60wOjjwXIWc06s-6" value="Consultas" style="rounded=0;whiteSpace=wrap;html=1;" vertex="1" parent="1">
          <mxGeometry x="230" y="230" width="120" height="60" as="geometry" />
        </mxCell>
        <mxCell id="WhsTPG60wOjjwXIWc06s-12" value="" style="edgeStyle=orthogonalEdgeStyle;rounded=0;orthogonalLoop=1;jettySize=auto;html=1;exitX=1;exitY=0.5;exitDx=0;exitDy=0;entryX=0;entryY=0.5;entryDx=0;entryDy=0;" edge="1" parent="1" source="WhsTPG60wOjjwXIWc06s-3" target="WhsTPG60wOjjwXIWc06s-11">
          <mxGeometry relative="1" as="geometry">
            <mxPoint x="-210" y="260" as="sourcePoint" />
            <mxPoint x="-50" y="260" as="targetPoint" />
          </mxGeometry>
        </mxCell>
        <mxCell id="WhsTPG60wOjjwXIWc06s-11" value="" style="rhombus;whiteSpace=wrap;html=1;" vertex="1" parent="1">
          <mxGeometry x="-150" y="240" width="40" height="40" as="geometry" />
        </mxCell>
        <mxCell id="WhsTPG60wOjjwXIWc06s-14" value="" style="edgeStyle=orthogonalEdgeStyle;rounded=0;orthogonalLoop=1;jettySize=auto;html=1;exitX=1;exitY=0.5;exitDx=0;exitDy=0;entryX=0;entryY=0.5;entryDx=0;entryDy=0;" edge="1" parent="1" source="WhsTPG60wOjjwXIWc06s-5" target="WhsTPG60wOjjwXIWc06s-13">
          <mxGeometry relative="1" as="geometry">
            <mxPoint x="70" y="260" as="sourcePoint" />
            <mxPoint x="230" y="260" as="targetPoint" />
          </mxGeometry>
        </mxCell>
        <mxCell id="WhsTPG60wOjjwXIWc06s-13" value="" style="rhombus;whiteSpace=wrap;html=1;" vertex="1" parent="1">
          <mxGeometry x="130" y="240" width="40" height="40" as="geometry" />
        </mxCell>
        <mxCell id="WhsTPG60wOjjwXIWc06s-16" value="N" style="rounded=0;whiteSpace=wrap;html=1;" vertex="1" parent="1">
          <mxGeometry x="207" y="240" width="23" height="20" as="geometry" />
        </mxCell>
        <mxCell id="WhsTPG60wOjjwXIWc06s-17" value="1" style="rounded=0;whiteSpace=wrap;html=1;" vertex="1" parent="1">
          <mxGeometry x="70" y="240" width="23" height="20" as="geometry" />
        </mxCell>
        <mxCell id="WhsTPG60wOjjwXIWc06s-18" value="1" style="rounded=0;whiteSpace=wrap;html=1;" vertex="1" parent="1">
          <mxGeometry x="-210" y="240" width="23" height="20" as="geometry" />
        </mxCell>
        <mxCell id="WhsTPG60wOjjwXIWc06s-19" value="N" style="rounded=0;whiteSpace=wrap;html=1;" vertex="1" parent="1">
          <mxGeometry x="-73" y="240" width="23" height="20" as="geometry" />
        </mxCell>
        <mxCell id="WhsTPG60wOjjwXIWc06s-24" value="Agendamentos" style="rounded=0;whiteSpace=wrap;html=1;" vertex="1" parent="1">
          <mxGeometry x="520" y="140" width="120" height="60" as="geometry" />
        </mxCell>
        <mxCell id="WhsTPG60wOjjwXIWc06s-28" value="Emergências" style="rounded=0;whiteSpace=wrap;html=1;" vertex="1" parent="1">
          <mxGeometry x="520" y="230" width="120" height="60" as="geometry" />
        </mxCell>
        <mxCell id="WhsTPG60wOjjwXIWc06s-31" value="Histórico Médico" style="rounded=0;whiteSpace=wrap;html=1;" vertex="1" parent="1">
          <mxGeometry x="520" y="840" width="120" height="60" as="geometry" />
        </mxCell>
        <mxCell id="WhsTPG60wOjjwXIWc06s-45" value="Veterinarios" style="rounded=0;whiteSpace=wrap;html=1;" vertex="1" parent="1">
          <mxGeometry x="230" y="450" width="120" height="60" as="geometry" />
        </mxCell>
        <mxCell id="WhsTPG60wOjjwXIWc06s-89" style="edgeStyle=orthogonalEdgeStyle;rounded=0;orthogonalLoop=1;jettySize=auto;html=1;exitX=0.5;exitY=1;exitDx=0;exitDy=0;entryX=0;entryY=0.5;entryDx=0;entryDy=0;" edge="1" parent="1" source="WhsTPG60wOjjwXIWc06s-53" target="WhsTPG60wOjjwXIWc06s-88">
          <mxGeometry relative="1" as="geometry" />
        </mxCell>
        <mxCell id="WhsTPG60wOjjwXIWc06s-90" style="edgeStyle=orthogonalEdgeStyle;rounded=0;orthogonalLoop=1;jettySize=auto;html=1;exitX=1;exitY=0.5;exitDx=0;exitDy=0;entryX=0;entryY=0.5;entryDx=0;entryDy=0;" edge="1" parent="1" source="WhsTPG60wOjjwXIWc06s-53" target="WhsTPG60wOjjwXIWc06s-28">
          <mxGeometry relative="1" as="geometry" />
        </mxCell>
        <mxCell id="WhsTPG60wOjjwXIWc06s-91" style="edgeStyle=orthogonalEdgeStyle;rounded=0;orthogonalLoop=1;jettySize=auto;html=1;exitX=0.5;exitY=0;exitDx=0;exitDy=0;entryX=0;entryY=0.5;entryDx=0;entryDy=0;" edge="1" parent="1" source="WhsTPG60wOjjwXIWc06s-53" target="WhsTPG60wOjjwXIWc06s-24">
          <mxGeometry relative="1" as="geometry" />
        </mxCell>
        <mxCell id="WhsTPG60wOjjwXIWc06s-53" value="" style="rhombus;whiteSpace=wrap;html=1;" vertex="1" parent="1">
          <mxGeometry x="413.5" y="240" width="40" height="40" as="geometry" />
        </mxCell>
        <mxCell id="WhsTPG60wOjjwXIWc06s-62" value="N" style="rounded=0;whiteSpace=wrap;html=1;" vertex="1" parent="1">
          <mxGeometry x="497" y="170" width="23" height="20" as="geometry" />
        </mxCell>
        <mxCell id="WhsTPG60wOjjwXIWc06s-81" style="edgeStyle=orthogonalEdgeStyle;rounded=0;orthogonalLoop=1;jettySize=auto;html=1;exitX=0.5;exitY=1;exitDx=0;exitDy=0;entryX=0.5;entryY=0;entryDx=0;entryDy=0;" edge="1" parent="1" target="WhsTPG60wOjjwXIWc06s-31">
          <mxGeometry relative="1" as="geometry">
            <mxPoint x="580" y="770" as="sourcePoint" />
          </mxGeometry>
        </mxCell>
        <mxCell id="WhsTPG60wOjjwXIWc06s-84" style="edgeStyle=orthogonalEdgeStyle;rounded=0;orthogonalLoop=1;jettySize=auto;html=1;exitX=0.5;exitY=1;exitDx=0;exitDy=0;entryX=0.5;entryY=0;entryDx=0;entryDy=0;" edge="1" parent="1" source="WhsTPG60wOjjwXIWc06s-82" target="WhsTPG60wOjjwXIWc06s-45">
          <mxGeometry relative="1" as="geometry" />
        </mxCell>
        <mxCell id="WhsTPG60wOjjwXIWc06s-82" value="" style="rhombus;whiteSpace=wrap;html=1;" vertex="1" parent="1">
          <mxGeometry x="270" y="350" width="40" height="40" as="geometry" />
        </mxCell>
        <mxCell id="WhsTPG60wOjjwXIWc06s-85" value="1" style="rounded=0;whiteSpace=wrap;html=1;" vertex="1" parent="1">
          <mxGeometry x="300" y="290" width="23" height="20" as="geometry" />
        </mxCell>
        <mxCell id="WhsTPG60wOjjwXIWc06s-86" value="N" style="rounded=0;whiteSpace=wrap;html=1;" vertex="1" parent="1">
          <mxGeometry x="300" y="430" width="23" height="20" as="geometry" />
        </mxCell>
        <mxCell id="WhsTPG60wOjjwXIWc06s-88" value="Histórico Médico" style="rounded=0;whiteSpace=wrap;html=1;" vertex="1" parent="1">
          <mxGeometry x="520" y="320" width="120" height="60" as="geometry" />
        </mxCell>
        <mxCell id="WhsTPG60wOjjwXIWc06s-93" value="1" style="rounded=0;whiteSpace=wrap;html=1;" vertex="1" parent="1">
          <mxGeometry x="350" y="240" width="23" height="20" as="geometry" />
        </mxCell>
        <mxCell id="WhsTPG60wOjjwXIWc06s-94" value="N" style="rounded=0;whiteSpace=wrap;html=1;" vertex="1" parent="1">
          <mxGeometry x="497" y="240" width="23" height="20" as="geometry" />
        </mxCell>
        <mxCell id="WhsTPG60wOjjwXIWc06s-95" value="N" style="rounded=0;whiteSpace=wrap;html=1;" vertex="1" parent="1">
          <mxGeometry x="497" y="330" width="23" height="20" as="geometry" />
        </mxCell>
      </root>
    </mxGraphModel>
  </diagram>
</mxfile>
